Coordinates
version=1
nRows=7
nColumns=38
inDegrees=yes

Units are S.I. units (second, meters, Newtons, ...)
Angles are in degrees.

endheader
time	pelvis_tilt	pelvis_list	pelvis_rotation	pelvis_tx	pelvis_ty	pelvis_tz	hip_flexion_r	hip_adduction_r	hip_rotation_r	knee_angle_r	ankle_angle_r	subtalar_angle_r	mtp_angle_r	hip_flexion_l	hip_adduction_l	hip_rotation_l	knee_angle_l	ankle_angle_l	subtalar_angle_l	mtp_angle_l	lumbar_extension	lumbar_bending	lumbar_rotation	arm_flex_r	arm_add_r	arm_rot_r	elbow_flex_r	pro_sup_r	wrist_flex_r	wrist_dev_r	arm_flex_l	arm_add_l	arm_rot_l	elbow_flex_l	pro_sup_l	wrist_flex_l	wrist_dev_l
      3.05000000	     -1.31320233	     -1.12802115	      0.71437283	     -0.98772338	      0.92830399	     -0.20251603	      3.64031691	      4.42028927	     -6.44041310	    -17.48602135	      9.62795219	      2.82010206	      1.78342177	     26.21260596	      1.71219561	      3.70372608	    -48.47992053	      0.09520251	     -4.93611921	     12.32466317	     -7.40949887	      4.40188814	     -0.22548203	      0.00039616	    -21.38325918	     14.32210403	     31.60182051	     86.51662706	      0.00000000	      0.00000000	     -4.29332809	    -13.66714636	     17.57952737	     19.66069238	     85.94366927	      0.00000000	      0.00000000
      3.06000000	     -1.13455722	     -1.17425660	      0.83064112	     -0.97648880	      0.92768898	     -0.20256461	      2.34600742	      4.57748910	     -6.37448230	    -16.85200657	      9.93048230	      2.32690262	      1.97594721	     26.47092268	      1.67403877	      3.93574642	    -45.49840381	      0.11654258	     -6.43966993	     11.77835837	     -7.66511814	      4.46093480	     -0.05511979	      0.33556161	    -21.64749139	     14.41269268	     32.34398542	     86.51662706	      0.00000000	      0.00000000	     -4.39220594	    -13.62442485	     17.47042753	     19.47373871	     85.94366927	      0.00000000	      0.00000000
      3.07000000	     -0.93603723	     -1.18120799	      0.90701930	     -0.96509940	      0.92693631	     -0.20264443	      1.03055378	      4.67239275	     -6.31028710	    -16.25690906	     10.28928387	      2.07887925	      2.17140247	     26.60347788	      1.64822380	      4.12761061	    -42.38363173	      0.09200075	     -7.88371796	     11.17605930	     -7.92974985	      4.47110356	      0.13260979	      0.62689852	    -21.86620453	     14.33776776	     33.08632316	     86.51662706	      0.00000000	      0.00000000	     -4.47865599	    -13.58849092	     17.36019558	     19.25468257	     85.94366927	      0.00000000	      0.00000000
      3.08000000	     -0.72889270	     -1.16594286	      0.96191140	     -0.95358189	      0.92604815	     -0.20277368	     -0.29259394	      4.72798752	     -6.24358047	    -15.70242199	     10.69024366	      1.99093621	      2.37285861	     26.63412265	      1.62513830	      4.30226236	    -39.16408123	      0.06035485	     -9.19559488	     10.53833823	     -8.19287638	      4.45106466	      0.32758889	      0.87481518	    -22.04808800	     14.12909466	     33.82497182	     86.51662706	      0.00000000	      0.00000000	     -4.55102956	    -13.55553625	     17.26022591	     19.00140066	     85.94366927	      0.00000000	      0.00000000
      3.09000000	     -0.52755867	     -1.14687374	      1.01459457	     -0.94195661	      0.92502057	     -0.20295971	     -1.60283901	      4.77067487	     -6.17037844	    -15.19299672	     11.11562876	      1.96493814	      2.58343779	     26.59257726	      1.59411400	      4.48038659	    -35.88107441	      0.06501846	    -10.27823443	      9.89426083	     -8.43873878	      4.42123122	      0.51756321	      1.07964003	    -22.20264203	     13.82499345	     34.55397011	     86.51662706	      0.00000000	      0.00000000	     -4.60720456	    -13.52196116	     17.18507322	     18.71119613	     85.94366927	      0.00000000	      0.00000000
      3.10000000	     -0.34744185	     -1.13821048	      1.07931463	     -0.93023354	      0.92384221	     -0.20320136	     -2.87524862	      4.82351485	     -6.08867490	    -14.73674317	     11.54681675	      1.91466763	      2.80524858	     26.50920933	      1.54667557	      4.67015115	    -32.58494857	      0.14314750	    -11.02884250	      9.27693998	     -8.64837136	      4.39809180	      0.69106798	      1.24181277	    -22.33789791	     13.46256053	     35.26570641	     86.51662706	      0.00000000	      0.00000000	     -4.64494314	    -13.48516938	     17.14976219	     18.38147606	     85.94366927	      0.00000000	      0.00000000
      3.11000000	     -0.20297416	     -1.14722396	      1.16300843	     -0.91841028	      0.92249815	     -0.20350621	     -4.08431521	      4.90179678	     -5.99919187	    -14.34552552	     11.96581964	      1.78180447	      3.03890787	     26.41203208	      1.47860775	      4.86167769	    -29.33098085	      0.32009426	    -11.35731051	      8.71903507	     -8.80278716	      4.39142062	      0.83957858	      1.36220240	    -22.45949336	     13.07289340	     35.95160143	     86.51662706	      0.00000000	      0.00000000	     -4.66212883	    -13.44338233	     17.16777485	     18.01045546	     85.94366927	      0.00000000	      0.00000000
